#!OML:ASF H:\ManfredObstacles\Project 1\Capture day 2\Session 1\male.ASF
:FULLY-SPECIFIED
:DEGREES
323
root 1.76566 14.6252 -0.925462 -162.951 0.627299 174.432
lowerback 0.362734 0.170912 -9.41321
upperback 0.89549 -0.0246347 -3.27081
thorax 0.711263 -0.182373 1.88233
lowerneck -42.1266 -3.49169 -1.91795
upperneck 31.6372 -6.85717 5.83866
head 19.4835 -1.97002 1.25932
rclavicle -3.57812e-015 -2.06736e-014
rhumerus -39.9672 10.8852 -92.3737
rradius 65.6265
rwrist 15.2449
rhand -8.8325 -6.84362
rfingers 7.12502
rthumb 17.1077 -36.1104
lclavicle -3.57812e-015 -2.06736e-014
lhumerus -33.8334 -33.2953 90.0784
lradius 75.5466
lwrist -20.306
lhand -6.30898 5.15941
lfingers 7.12502
lthumb 19.5353 34.198
rfemur -35.9168 -0.12114 17.5791
rtibia 80.2953
rfoot -21.4775 -25.6038
rtoes -26.0994
lfemur -16.4107 -2.50574 -29.2753
ltibia 48.9913
lfoot -3.99806 30.087
ltoes -17.2879
324
root 1.76049 14.6197 -1.06043 -163.019 0.467311 174.365
lowerback 0.69499 0.00726734 -9.50261
upperback 1.04469 -0.280912 -3.2621
thorax 0.705706 -0.317574 1.94061
lowerneck -42.0645 -3.4072 -1.82633
upperneck 31.4799 -6.77372 5.84323
head 19.3713 -1.92846 1.26754
rclavicle 1.39149e-015 1.11319e-014
rhumerus -40.7504 10.0421 -91.8375
rradius 64.0803
rwrist 15.8036
rhand -9.01702 -7.19384
rfingers 7.12502
rthumb 16.9301 -36.4759
lclavicle 1.39149e-015 1.11319e-014
lhumerus -32.5204 -33.1878 89.9837
lradius 76.0311
lwrist -20.2233
lhand -6.69317 5.21738
lfingers 7.12502
lthumb 19.1659 34.293
rfemur -37.9891 -0.820749 17.5781
rtibia 82.5569
rfoot -21.576 -25.6082
rtoes -25.5651
lfemur -15.5259 -2.59903 -29.3481
ltibia 48.4248
lfoot -3.58031 29.815
ltoes -17.4372
325
root 1.75584 14.6176 -1.20015 -163.065 0.317518 174.321
lowerback 1.00456 -0.147027 -9.56935
upperback 1.19762 -0.521536 -3.24789
thorax 0.716 -0.445484 1.99324
lowerneck -41.9945 -3.31983 -1.72694
upperneck 31.3056 -6.69209 5.85373
head 19.2488 -1.88604 1.27643
rclavicle 1.59028e-015 4.85035e-014
rhumerus -41.5076 9.12576 -91.2088
rradius 62.3544
rwrist 16.4015
rhand -9.15314 -7.5993
rfingers 7.12502
rthumb 16.799 -36.8926
lclavicle 1.59028e-015 4.85035e-014
lhumerus -31.1224 -33.1389 89.8756
lradius 76.5719
lwrist -20.1272
lhand -7.07466 5.29227
lfingers 7.12502
lthumb 18.799 34.4039
rfemur -40.1267 -1.47389 17.6183
rtibia 84.5853
rfoot -21.6896 -25.5805
rtoes -25.1651
lfemur -14.6114 -2.70524 -29.3997
ltibia 47.7736
lfoot -3.13956 29.5173
ltoes -17.5416
326
root 1.75197 14.618 -1.34417 -163.098 0.177243 174.278
lowerback 1.31213 -0.2901 -9.64066
upperback 1.3543 -0.747665 -3.23071
thorax 0.730636 -0.566852 2.0525
lowerneck -41.9366 -3.23623 -1.64088
upperneck 31.125 -6.61222 5.87871
head 19.1278 -1.84332 1.29388
rclavicle -8.54774e-015 -3.89618e-014
rhumerus -42.2629 8.16612 -90.494
rradius 60.5132
rwrist 16.9281
rhand -9.2388 -8.11466
rfingers 7.12502
rthumb 16.7166 -37.4149
lclavicle -8.54774e-015 -3.89618e-014
lhumerus -29.6697 -33.1525 89.7537
lradius 77.1799
lwrist -20.0777
lhand -7.45583 5.36496
lfingers 7.12502
lthumb 18.4324 34.5117
rfemur -42.3163 -2.09029 17.6813
rtibia 86.382
rfoot -21.7808 -25.5402
rtoes -24.9604
lfemur -13.6526 -2.81518 -29.4516
ltibia 47.0286
lfoot -2.67116 29.1783
ltoes -17.5907
327
root 1.74886 14.6217 -1.49373 -163.129 0.0534555 174.227
lowerback 1.62127 -0.421928 -9.72871
upperback 1.51547 -0.960203 -3.21022
thorax 0.74876 -0.682406 2.12535
lowerneck -41.8346 -3.15901 -1.56952
upperneck 30.9243 -6.536 5.91581
head 18.989 -1.80349 1.31787
rclavicle -2.0276e-014 -1.43125e-014
rhumerus -43.0424 7.19201 -89.7017
rradius 58.6154
rwrist 17.3257
rhand -9.2688 -8.73246
rfingers 7.12502
rthumb 16.6877 -38.0352
lclavicle -2.0276e-014 -1.43125e-014
lhumerus -28.1872 -33.2345 89.6161
lradius 77.8446
lwrist -20.0845
lhand -7.86093 5.41122
lfingers 7.12502
lthumb 18.0426 34.5944
rfemur -44.5282 -2.65928 17.7569
rtibia 87.9306
rfoot -21.8375 -25.5023
rtoes -24.9885
lfemur -12.6257 -2.91986 -29.5136
ltibia 46.1765
lfoot -2.17377 28.7945
ltoes -17.5784
328
root 1.74683 14.6276 -1.64831 -163.156 -0.0603068 174.156
lowerback 1.94301 -0.54483 -9.84532
upperback 1.67272 -1.16456 -3.18406
thorax 0.756483 -0.794155 2.22099
lowerneck -41.7569 -3.36315 -1.22718
upperneck 30.7685 -6.31849 5.75698
head 18.8495 -1.45364 1.32806
rclavicle 1.19271e-014 2.54444e-014
rhumerus -43.8908 6.23192 -88.8357
rradius 56.7495
rwrist 17.4888
rhand -9.27037 -9.4
rfingers 7.12502
rthumb 16.6862 -38.7028
lclavicle 1.19271e-014 2.54444e-014
lhumerus -26.7032 -33.3801 89.4688
lradius 78.558
lwrist -20.1816
lhand -8.30322 5.41234
lfingers 7.12502
lthumb 17.6171 34.6342
rfemur -46.7524 -3.18871 17.8354
rtibia 89.2351
rfoot -21.8702 -25.4651
rtoes -25.1325
lfemur -11.5358 -3.01524 -29.5937
ltibia 45.2148
lfoot -1.64983 28.3539
ltoes -17.5265
329
root 1.7462 14.6353 -1.80696 -163.169 -0.168997 174.065
lowerback 2.28802 -0.662574 -9.99253
upperback 1.82129 -1.36778 -3.1514
thorax 0.744078 -0.905073 2.34189
lowerneck -41.6758 -3.29486 -1.19831
upperneck 30.5673 -6.24044 5.7901
head 18.7181 -1.42462 1.35466
rclavicle -1.63003e-014 8.74653e-015
rhumerus -44.8257 5.30945 -87.907
rradius 55.0144
rwrist 17.3508
rhand -9.19898 -10.1076
rfingers 7.12502
rthumb 16.7549 -39.4046
lclavicle -1.63003e-014 8.74653e-015
lhumerus -25.2363 -33.5833 89.3061
lradius 79.3359
lwrist -20.3071
lhand -8.78054 5.38132
lfingers 7.12502
lthumb 17.1577 34.6438
rfemur -48.9954 -3.67514 17.9206
rtibia 90.2919
rfoot -21.8729 -25.4296
rtoes -25.3368
lfemur -10.3985 -3.11012 -29.6864
ltibia 44.1356
lfoot -1.07218 27.8345
ltoes -17.4579
330
root 1.7471 14.6444 -1.97023 -163.168 -0.275012 173.953
lowerback 2.64228 -0.774938 -10.1741
upperback 1.95562 -1.56728 -3.1032
thorax 0.714204 -1.01336 2.49943
lowerneck -41.6021 -3.23373 -1.18615
upperneck 30.3439 -6.15385 5.80253
head 18.5757 -1.39947 1.3752
rclavicle 1.94809e-014 3.97569e-015
rhumerus -45.884 4.43526 -86.8931
rradius 53.4495
rwrist 17.0255
rhand -9.09717 -10.7028
rfingers 7.12502
rthumb 16.8529 -39.9915
lclavicle 1.94809e-014 3.97569e-015
lhumerus -23.8046 -33.8449 89.1411
lradius 80.169
lwrist -20.4695
lhand -9.24944 5.33285
lfingers 7.12502
lthumb 16.7063 34.634
rfemur -51.2318 -4.11502 18.0094
rtibia 91.0996
rfoot -21.8595 -25.3601
rtoes -25.5321
lfemur -9.20888 -3.20609 -29.7896
ltibia 42.9372
lfoot -0.432213 27.2329
ltoes -17.3868
331
root 1.74924 14.6562 -2.13918 -163.157 -0.397927 173.83
lowerback 3.01029 -0.889164 -10.3678
upperback 2.0819 -1.77244 -3.03983
thorax 0.671736 -1.1237 2.68123
lowerneck -41.5833 -3.16776 -1.17287
upperneck 30.137 -6.05077 5.7826
head 18.4513 -1.37246 1.38462
rclavicle 3.02153e-014 1.82882e-014
rhumerus -47.0686 3.6237 -85.8089
rradius 52.1236
rwrist 16.5605
rhand -8.95313 -11.1558
rfingers 7.12502
rthumb 16.9916 -40.4326
lclavicle 3.02153e-014 1.82882e-014
lhumerus -22.4042 -34.1673 88.9516
lradius 81.0551
lwrist -20.6166
lhand -9.689 5.26758
lfingers 7.12502
lthumb 16.2831 34.6039
rfemur -53.4196 -4.52476 18.1098
rtibia 91.6444
rfoot -21.8311 -25.2549
rtoes -25.6586
lfemur -7.95823 -3.3163 -29.8885
ltibia 41.6144
lfoot 0.254891 26.5371
ltoes -17.3145
